HIERARCHY
ROOT Hips
{
	OFFSET 0.000000 0.000000 0.000000
	CHANNELS 6 Xposition Yposition Zposition Zrotation Yrotation Xrotation 
	JOINT LowerBack
	{
		OFFSET 0.000000 0.000000 0.000000
		CHANNELS 3 Zrotation Yrotation Xrotation
		JOINT Spine
		{
			OFFSET 0.028270 2.035590 -0.193380
			CHANNELS 3 Zrotation Yrotation Xrotation
			JOINT Spine1
			{
				OFFSET 0.056720 2.048850 -0.042750
				CHANNELS 3 Zrotation Yrotation Xrotation
				JOINT Neck
				{
					OFFSET 0.000000 0.000000 0.000000
					CHANNELS 3 Zrotation Yrotation Xrotation
					JOINT Neck1
					{
						OFFSET -0.054170 1.746240 0.172020
						CHANNELS 3 Zrotation Yrotation Xrotation
						JOINT Head
						{
							OFFSET 0.104070 1.761360 -0.123970
							CHANNELS 3 Zrotation Yrotation Xrotation
							End Site
							{
								OFFSET 0.000000 0.000000 0.000000
							}
						}
					}
				}
				JOINT LeftShoulder
				{
					OFFSET 0.000000 0.000000 0.000000
					CHANNELS 3 Zrotation Yrotation Xrotation
					JOINT LeftArm
					{
						OFFSET 3.362410 1.200890 -0.311210
						CHANNELS 3 Zrotation Yrotation Xrotation
						JOINT LeftForeArm
						{
							OFFSET 4.983000 -0.000000 -0.000000
							CHANNELS 3 Zrotation Yrotation Xrotation
							JOINT LeftHand
							{
								OFFSET 3.483560 -0.000000 -0.000000
								CHANNELS 3 Zrotation Yrotation Xrotation
								JOINT LeftFingerBase
								{
									OFFSET 0.000000 0.000000 0.000000
									CHANNELS 3 Zrotation Yrotation Xrotation
									JOINT LeftHandIndex1
									{
										OFFSET 0.715260 -0.000000 -0.000000
										CHANNELS 3 Zrotation Yrotation Xrotation
										End Site
										{
											OFFSET 0.000000 0.000000 0.000000
										}
									}
								}
								JOINT LThumb
								{
									OFFSET 0.000000 0.000000 0.000000
									CHANNELS 3 Zrotation Yrotation Xrotation
									End Site
									{
										OFFSET 0.000000 0.000000 0.000000
									}
								}
							}
						}
					}
				}
				JOINT RightShoulder
				{
					OFFSET 0.000000 0.000000 0.000000
					CHANNELS 3 Zrotation Yrotation Xrotation
					JOINT RightArm
					{
						OFFSET -3.136600 1.374050 -0.404650
						CHANNELS 3 Zrotation Yrotation Xrotation
						JOINT RightForeArm
						{
							OFFSET -5.241900 -0.000000 -0.000000
							CHANNELS 3 Zrotation Yrotation Xrotation
							JOINT RightHand
							{
								OFFSET -3.444170 -0.000000 -0.000000
								CHANNELS 3 Zrotation Yrotation Xrotation
								JOINT RightFingerBase
								{
									OFFSET 0.000000 0.000000 0.000000
									CHANNELS 3 Zrotation Yrotation Xrotation
									JOINT RightHandIndex1
									{
										OFFSET -0.622530 -0.000000 -0.000000
										CHANNELS 3 Zrotation Yrotation Xrotation
										End Site
										{
											OFFSET 0.000000 0.000000 0.000000
										}
									}
								}
								JOINT RThumb
								{
									OFFSET 0.000000 0.000000 0.000000
									CHANNELS 3 Zrotation Yrotation Xrotation
									End Site
									{
										OFFSET 0.000000 0.000000 0.000000
									}
								}
							}
						}
					}
				}
			}
		}
	}
}
}
MOTION
Frames: 12
Frame Time: 0.008333
3.400008 16.907673 -1.468273 -159.651385 83.669875 -158.813718 4.154215 -5.443973 -2.056080 0.362397 -5.872431 -2.413911 -6.247708 -5.759913 3.489176 11.332785 -21.548200 -12.153384 -2.161199 -0.102524 -1.141000 0.000000 0.000000 0.000000 1.843907 17.856453 1.011763 -33.646684 2.926815 -2.301400 -1.273938 -62.618005 -0.013844 4.161285 1.242431 0.041323 -0.153947 0.178424 0.000000 0.000000 0.000000 0.000000 0.000000 0.000000 0.000000 17.275388 -20.045580 0.344252 81.785531 -24.405815 -25.036220 4.415707 15.818655 0.008545 1.319280 3.439679 0.036628 0.121344 -0.026444 -0.000000 0.000000 0.000000 0.000000 0.000000 0.000000 0.000000 
3.653075 16.882432 -1.497697 -160.422520 83.129127 -159.867212 4.305458 -5.372117 -1.877075 0.377992 -5.805633 -2.410617 -6.270701 -5.695461 3.397431 11.312198 -21.420602 -12.114290 -2.205942 -0.107290 -1.130598 0.000000 0.000000 0.000000 1.728327 17.533130 1.007413 -34.296866 3.263532 -2.130958 -1.308440 -62.260371 -0.014448 4.419044 1.352007 0.048445 -0.157508 0.171579 0.000000 0.000000 0.000000 0.000000 0.000000 0.000000 0.000000 17.320099 -19.846887 0.330592 81.329853 -23.733180 -24.406115 4.364301 16.016540 0.008891 0.866746 3.643327 0.024243 0.122537 -0.028023 -0.000000 0.000000 0.000000 0.000000 0.000000 0.000000 0.000000 
3.902486 16.855671 -1.527918 -161.039681 82.586069 -160.727644 4.455248 -5.276652 -1.696930 0.389490 -5.714207 -2.409551 -6.303631 -5.606273 3.299649 11.299709 -21.271245 -12.072340 -2.253628 -0.112367 -1.119649 0.000000 0.000000 0.000000 1.587533 17.184393 1.000795 -35.040058 3.605225 -1.834355 -1.348711 -61.855424 -0.014750 4.631804 1.463344 0.055668 -0.160565 0.163192 -0.000000 0.000000 0.000000 0.000000 0.000000 0.000000 0.000000 17.367273 -19.616780 0.325186 80.855031 -22.953807 -23.717527 4.310084 16.185430 0.009180 0.412026 3.834238 0.010054 0.123542 -0.029642 -0.000000 0.000000 0.000000 0.000000 0.000000 0.000000 0.000000 
4.148191 16.828091 -1.559109 -161.485671 82.056398 -161.366760 4.608863 -5.155280 -1.528902 0.398494 -5.596372 -2.412616 -6.344709 -5.490576 3.197749 11.287610 -21.092873 -12.024491 -2.303768 -0.117778 -1.107309 0.000000 0.000000 0.000000 1.418707 16.828693 0.991413 -35.873022 3.940107 -1.409935 -1.395263 -61.389568 -0.014739 4.796964 1.574733 0.062887 -0.163119 0.153358 -0.000000 0.000000 0.000000 0.000000 0.000000 0.000000 0.000000 17.406862 -19.346136 0.326564 80.364132 -22.078473 -22.983253 4.256046 16.333774 0.009385 -0.021716 3.997838 -0.004735 0.124321 -0.031273 -0.000000 0.000000 0.000000 0.000000 0.000000 0.000000 0.000000 
4.390222 16.800506 -1.591506 -161.790715 81.552760 -161.809520 4.764733 -5.007791 -1.381426 0.405621 -5.451989 -2.420458 -6.390566 -5.348316 3.094530 11.270267 -20.881937 -11.968916 -2.355303 -0.123461 -1.093095 0.000000 0.000000 0.000000 1.226031 16.488631 0.978622 -36.804728 4.250581 -0.864162 -1.449216 -60.839827 -0.014432 4.909758 1.685461 0.069702 -0.165136 0.142265 -0.000000 0.000000 0.000000 0.000000 0.000000 0.000000 0.000000 17.431163 -19.030929 0.331947 79.851102 -21.115612 -22.180237 4.204273 16.468446 0.009505 -0.424941 4.130469 -0.019624 0.124912 -0.032876 -0.000000 0.000000 0.000000 0.000000 0.000000 0.000000 0.000000 
4.628751 16.773776 -1.625273 -162.025503 81.084571 -162.129061 4.917474 -4.836332 -1.258034 0.410416 -5.283087 -2.433721 -6.439382 -5.181641 2.988884 11.240923 -20.626291 -11.900541 -2.409313 -0.129586 -1.075609 0.000000 0.000000 0.000000 1.003754 16.166246 0.962867 -37.827010 4.554705 -0.207829 -1.510822 -60.203983 -0.013839 4.969822 1.790317 0.075816 -0.166578 0.130001 -0.000000 0.000000 0.000000 0.000000 0.000000 0.000000 0.000000 17.436257 -18.658264 0.340043 79.318517 -20.082861 -21.395572 4.157486 16.604348 0.009515 -0.759667 4.214426 -0.032413 0.125194 -0.034547 -0.000000 0.000000 0.000000 0.000000 0.000000 0.000000 0.000000 
4.863973 16.748708 -1.660554 -162.253686 80.650754 -162.390135 5.051117 -4.645145 -1.161268 0.411298 -5.093138 -2.451085 -6.485286 -4.994231 2.886435 11.202678 -20.330518 -11.821062 -2.463664 -0.135910 -1.055339 0.000000 0.000000 0.000000 0.783050 15.894826 0.943104 -38.984184 4.813738 0.530565 -1.582575 -59.435574 -0.013033 4.964450 1.901116 0.081223 -0.167351 0.116983 -0.000000 0.000000 0.000000 0.000000 0.000000 0.000000 0.000000 17.424598 -18.235376 0.344957 78.736217 -18.986513 -20.465297 4.114258 16.746812 0.009481 -1.075168 4.279385 -0.044803 0.125497 -0.036115 -0.000000 0.000000 0.000000 0.000000 0.000000 0.000000 0.000000 
5.096152 16.726161 -1.697511 -162.558154 80.253176 -162.686085 5.156826 -4.439386 -1.089264 0.407049 -4.887004 -2.472739 -6.527200 -4.791109 2.784207 11.150973 -19.985449 -11.726107 -2.519943 -0.142628 -1.031047 0.000000 0.000000 0.000000 0.550364 15.661205 0.920591 -40.255624 5.069640 1.328890 -1.664123 -58.544972 -0.012037 4.898979 2.004976 0.085425 -0.167417 0.103332 -0.000000 0.000000 0.000000 0.000000 0.000000 0.000000 0.000000 17.396506 -17.753548 0.347199 78.108326 -17.843567 -19.553852 4.076904 16.911076 0.009369 -1.321842 4.303138 -0.054393 0.125622 -0.037783 -0.000000 0.000000 0.000000 0.000000 0.000000 0.000000 0.000000 
5.325560 16.706819 -1.736325 -162.992085 79.883602 -163.076857 5.222096 -4.225350 -1.040413 0.396248 -4.670434 -2.497719 -6.561824 -4.578218 2.684140 11.089204 -19.592649 -11.616368 -2.577610 -0.149656 -1.002893 0.000000 0.000000 0.000000 0.320240 15.474144 0.895749 -41.658998 5.321853 2.149241 -1.756561 -57.512153 -0.010931 4.769570 2.107633 0.088318 -0.166718 0.089381 -0.000000 0.000000 0.000000 0.000000 0.000000 0.000000 0.000000 17.357591 -17.217209 0.344303 77.415728 -16.663854 -18.628270 4.044277 17.105383 0.009212 -1.522327 4.299716 -0.061982 0.125732 -0.039522 -0.000000 0.000000 0.000000 0.000000 0.000000 0.000000 0.000000 
5.552373 16.691266 -1.777216 -163.590816 79.531404 -163.606273 5.237660 -4.009142 -1.010918 0.378162 -4.449069 -2.524413 -6.585527 -4.361376 2.589670 11.021309 -19.164151 -11.495680 -2.634658 -0.156733 -0.971899 0.000000 0.000000 0.000000 0.102596 15.342239 0.868945 -43.207275 5.565140 2.950734 -1.860843 -56.314901 -0.009800 4.577036 2.211170 0.089703 -0.165241 0.075517 -0.000000 0.000000 0.000000 0.000000 0.000000 0.000000 0.000000 17.310273 -16.642549 0.335139 76.640650 -15.444963 -17.667963 4.014937 17.328086 0.009039 -1.701257 4.281537 -0.068571 0.125994 -0.041316 -0.000000 0.000000 0.000000 0.000000 0.000000 0.000000 0.000000 
5.776681 16.679930 -1.820466 -164.370266 79.183359 -164.298806 5.199240 -3.796609 -0.996516 0.352587 -4.228546 -2.551733 -6.596591 -4.146350 2.502169 10.950837 -18.706273 -11.366732 -2.690256 -0.163732 -0.938762 0.000000 0.000000 0.000000 -0.099381 15.263880 0.841381 -44.901135 5.807852 3.689926 -1.976972 -54.943922 -0.008731 4.326558 2.320678 0.089776 -0.163007 0.062028 0.000000 0.000000 0.000000 0.000000 0.000000 0.000000 0.000000 17.258173 -16.039365 0.320170 75.774037 -14.190693 -16.696047 3.987531 17.580868 0.008857 -1.875233 4.254880 -0.074659 0.126508 -0.043187 -0.000000 0.000000 0.000000 0.000000 0.000000 0.000000 0.000000 
5.998514 16.673088 -1.866349 -165.322031 78.825198 -165.153588 5.108015 -3.592661 -0.992339 0.319934 -4.013829 -2.579193 -6.595078 -3.938204 2.420540 10.880139 -18.219082 -11.230471 -2.744426 -0.170631 -0.903691 0.000000 0.000000 0.000000 -0.289834 15.227020 0.815130 -46.727148 6.070109 4.323969 -2.103683 -53.403592 -0.007805 4.029084 2.445240 0.088840 -0.160070 0.049097 0.000000 0.000000 0.000000 0.000000 0.000000 0.000000 0.000000 17.203581 -15.410270 0.301533 74.815510 -12.913205 -15.771577 3.960935 17.870819 0.008660 -2.051831 4.220385 -0.080646 0.127302 -0.045196 -0.000000 0.000000 0.000000 0.000000 0.000000 0.000000 0.000000 
